<?xml version="1.0" encoding="utf-8"?>
<!-- Generator: Adobe Illustrator 16.0.0, SVG Export Plug-In . SVG Version: 6.00 Build 0)  -->
<!DOCTYPE svg PUBLIC "-//W3C//DTD SVG 1.0//EN" "http://www.w3.org/TR/2001/REC-SVG-20010904/DTD/svg10.dtd" [
	<!ENTITY ns_extend "http://ns.adobe.com/Extensibility/1.0/">
	<!ENTITY ns_ai "http://ns.adobe.com/AdobeIllustrator/10.0/">
	<!ENTITY ns_graphs "http://ns.adobe.com/Graphs/1.0/">
	<!ENTITY ns_vars "http://ns.adobe.com/Variables/1.0/">
	<!ENTITY ns_imrep "http://ns.adobe.com/ImageReplacement/1.0/">
	<!ENTITY ns_sfw "http://ns.adobe.com/SaveForWeb/1.0/">
	<!ENTITY ns_custom "http://ns.adobe.com/GenericCustomNamespace/1.0/">
	<!ENTITY ns_adobe_xpath "http://ns.adobe.com/XPath/1.0/">
]>
<svg version="1.0" id="Layer_1" xmlns:x="&ns_extend;" xmlns:i="&ns_ai;" xmlns:graph="&ns_graphs;"
	 xmlns="http://www.w3.org/2000/svg" xmlns:xlink="http://www.w3.org/1999/xlink" x="0px" y="0px" width="238px" height="92px"
	 viewBox="0 0 238 92" enable-background="new 0 0 238 92" xml:space="preserve">
<metadata>
	<sfw  xmlns="&ns_sfw;">
		<slices></slices>
		<sliceSourceBounds  height="90" width="235.793" y="701" x="1" bottomLeftOrigin="true"></sliceSourceBounds>
	</sfw>
</metadata>
<path fill="#569BBE" d="M86.778,58.442c0.363-1.382,0.611-2.823,0.729-4.325c1.274-1.053,2.419-2.131,3.419-3.228
	C89.856,53.576,88.465,56.114,86.778,58.442 M64.673,72.302c-1.83,0.321-3.646,0.475-5.44,0.506c-1.472-0.8-2.982-3.496-4.235-7.315
	c2.778-0.046,5.638-0.285,8.533-0.775c2.442-0.426,4.784-1.018,7.032-1.715c0.01,0.365,0.021,0.729,0.018,1.078
	c0.024,3.516-0.631,6.116-1.635,7.149c-0.002,0.004-0.005,0.006-0.005,0.009C67.554,71.667,66.142,72.044,64.673,72.302
	 M32.114,60.555c1.532,0.836,3.25,1.598,5.136,2.252c0.7,1.559,1.503,3.02,2.416,4.361C36.857,65.338,34.298,63.125,32.114,60.555
	 M57.185,3.286c-0.411,0.3-0.94,0.829-1.268,1.373c-0.609-0.041-2.771,0.129-3.924,0.394c-0.199-0.308-0.724-0.793-0.986-1.033
	C53.049,3.488,55.716,3.346,57.185,3.286 M89.958,22.849c0.727,1.426,0.907,2.835,0.913,2.867
	c-2.476-4.031-6.332-8.261-10.396-11.199c0.207-0.527,0.375-2.497,0.003-3.493C84.396,14.185,88.286,18.975,89.958,22.849
	 M51.97,49.856c2.75-0.099,5.591-0.38,8.492-0.875c2.662-0.457,5.212-1.084,7.654-1.82c1.159,4.833,2,9.503,2.322,13.488
	c-2.322,0.747-4.752,1.375-7.291,1.795c-3.003,0.509-5.968,0.743-8.833,0.754C53.713,61.304,52.112,53.744,51.97,49.856
	 M36.255,48.156c3.965,1.097,8.516,1.705,13.397,1.744c0.216,3.588,1.625,10.701,2.291,13.264
	c-4.778-0.183-9.215-1.021-12.985-2.236C37.426,57.182,36.489,52.825,36.255,48.156 M27.869,54.458
	c-1.347-3.031-2.404-8.221-1.972-11.343c1.972,1.615,5.067,3.28,8.023,4.312c0.149,4.445,0.889,8.674,2.183,12.465
	c-3.595-1.485-6.266-3.296-7.9-5.269 M28.835,20.167c0.065,1.152,0.786,2.642,1.284,3.208c-2.799,4.424-4.972,9.438-5.809,14.356
	c-0.334-0.855-0.343-2.606-0.289-3.222C24.503,29.081,26.221,24.52,28.835,20.167 M59.435,7.545
	c0.889,0.363,1.181,0.786,1.196,0.979c0.003,0.018,0.006,0.066,0.006,0.095c0.048,0.342-0.49,1.365-1.73,2.242
	c-1.205,0.894-2.97,1.687-4.968,2.017c-0.709,0.114-1.396,0.167-2.052,0.169c-1.644,0-3.102-0.342-4.112-0.826
	c-1.038-0.482-1.495-1.11-1.512-1.364c-0.008-0.038-0.011-0.045-0.011-0.09c-0.049-0.253,0.412-1.078,1.652-1.823
	c1.202-0.744,3-1.407,5.052-1.745c0.982-0.166,1.932-0.242,2.812-0.242h0.03C57.286,6.958,58.578,7.192,59.435,7.545 M74.021,20.442
	c-3.395-3.709-7.362-7.004-11.838-9.626c0.255-0.373,0.447-0.766,0.58-1.181c5.725,0.97,10.783,3.01,15.049,5.812
	C77.117,17.053,75.826,18.78,74.021,20.442 M75.562,22.203c1.854-1.705,3.262-3.542,4.132-5.407
	c4.453,3.352,7.925,7.559,10.213,12.227c-0.894,2.374-2.857,4.927-5.716,7.338C82.158,31.445,79.247,26.592,75.562,22.203
	 M64.886,28.531c3.425-1.29,6.446-2.957,8.906-4.846c3.677,4.388,6.555,9.258,8.509,14.149c-2.989,2.299-7.804,4.731-12.537,6.378
	C68.386,38.827,66.679,33.388,64.886,28.531 M50.982,31.155c3.052,0.194,9.684-1.119,11.711-1.868
	c1.773,4.821,3.487,10.269,4.864,15.631c-2.384,0.726-4.879,1.343-7.489,1.79c-2.853,0.488-5.646,0.759-8.344,0.846
	C51.226,42.377,50.767,34.199,50.982,31.155 M38.943,29.359c2.875,0.976,6.192,1.586,9.741,1.762
	c-0.162,1.988,0.233,11.27,0.729,16.469c-4.934-0.012-9.433-0.7-13.222-1.854C36.199,40.431,37.087,34.827,38.943,29.359
	 M44.42,12.406c0.018-0.012,0.026-0.032,0.042-0.041c0.18,0.289,0.391,0.557,0.636,0.802c-3.217,4.099-5.697,8.559-7.498,13.156
	c-1.934-0.883-3.526-1.925-4.643-3.038C35.835,19.134,39.649,15.399,44.42,12.406 M48.718,28.836
	c-3.323-0.143-6.375-0.752-8.975-1.653c1.747-4.466,4.16-8.798,7.296-12.758c0.922,0.395,1.991,0.659,3.154,0.8
	C49.327,18.267,48.853,23.09,48.718,28.836 M60.537,12.511c4.431,2.502,8.355,5.749,11.711,9.409
	c-2.21,1.61-5.286,3.436-8.167,4.483c-2.079-5.355-4.214-9.809-6.034-12.408C58.768,13.749,60.209,12.836,60.537,12.511
	 M55.8,14.817c1.694,2.114,3.902,6.667,6.092,12.343c-1.737,0.698-7.794,1.882-10.873,1.688c0.141-6.028,0.701-11.055,1.535-13.525
	C53.339,15.335,54.972,15.072,55.8,14.817 M31.288,17.914c3.253-3.618,6.527-5.266,10.132-6.267
	c-3.974,2.769-7.282,6.045-9.897,9.655C31.254,20.91,30.702,19.205,31.288,17.914 M26.275,40.259
	c0.374-4.291,2.537-10.256,5.417-15.019c1.334,1.278,3.064,2.38,5.104,3.278c-1.876,5.478-3.01,12.808-2.894,16.439
	C33.088,44.682,28.251,42.641,26.275,40.259 M75.471,7.65c1.733,1.121,2.544,2.651,2.859,4.319c0.046,0.266,0.094,0.892,0.052,1.131
	c-4.115-2.738-10.723-5.237-15.781-5.779c-0.039-0.075-0.079-0.152-0.124-0.224c2.07-0.813,3.741-1.252,5.726-1.266
	C71.409,5.812,74.555,7.021,75.471,7.65 M61.099,3.325c1.364,0.093,2.712,0.257,4.04,0.508c-1.661,0.282-4.328,1.484-4.721,1.632
	c-0.351-0.174-1.209-0.441-1.752-0.559C59.21,4.298,60.219,3.6,61.099,3.325 M48.508,4.667c0.225,0.127,0.865,0.504,1.298,0.936
	c-0.625,0.12-1.661,0.611-2.019,0.769c-0.64-0.192-2.271-0.548-2.595-0.577C45.64,5.508,47.739,4.827,48.508,4.667 M42.172,7.479
	c1.161-0.192,2.572,0.064,3.356,0.336c-0.313,0.263-0.628,0.635-0.85,0.913c-1.292,0.004-5.11,0.937-7.654,2.035
	C38.354,9.721,40.771,7.959,42.172,7.479 M40.283,63.73c3.7,0.994,7.862,1.616,12.292,1.747c0.884,2.967,1.946,5.455,3.305,7.24
	c-3.641-0.289-7.152-1.161-10.444-2.519C44.357,69.7,41.666,66.288,40.283,63.73 M72.663,59.875
	c-0.378-4.064-1.215-8.677-2.343-13.411c4.924-1.688,9.274-3.896,12.812-6.383c1.532,3.795,2.559,11.997,2.114,12.887
	C81.875,55.588,77.58,58.037,72.663,59.875 M80.797,64.838c-2.578,2.137-5.491,3.903-8.664,5.237
	c0.544-1.671,0.743-3.696,0.757-5.994c-0.003-0.588-0.026-1.203-0.057-1.828c4.597-1.642,8.688-3.783,12.095-6.169
	C84.359,59.435,82.726,63.153,80.797,64.838 M87.553,51.002c-0.126-3.947-0.97-8.158-2.485-12.382
	c2.644-2.129,4.72-4.417,6.047-6.788c1.28,3.391,1.976,6.726,1.999,10.551C93.058,45.029,90.364,48.41,87.553,51.002 M95.718,38.098
	c0.007-2.123-0.185-4.308-0.569-6.48C93.127,20.175,86.018,10.819,76.64,5.662c-4.128-2.508-10.207-4.208-15.373-4.579
	c-3.292-0.236-6.896,0.071-9.074,0.455c-4.199,0.74-8.091,2.184-11.618,4.151c-13.55,7.75-19.031,20.886-19.031,32.324
	c0,2.137,0.185,4.304,0.572,6.483c3.175,17.99,18.812,30.647,36.476,30.647c2.137,0,4.299-0.185,6.48-0.569h0.003
	c16.064-2.915,27.599-15.338,30.164-30.58C95.262,43.856,95.715,40.234,95.718,38.098"/>
<path fill="#AFBC22" d="M8.799,17.456c0.069,5.172,0.459,7.491-0.001,11.814c-0.275,3.613-2.659,8.785-2.142,12.375
	c-2.933-6.556-2.896-10.9-1.915-14.813C5.737,22.686,7.875,19.508,8.799,17.456"/>
<path fill="#AFBC22" d="M12.099,58.443c-2.256-3.205-6.745-5.925-8.726-10.633c-2.837-6.832-2.502-11.417-2.127-12.769
	c0.547,3.175,2.792,6.636,5.475,10.908c1.336,2.196,2.089,4.983,2.639,6.062c-1.133-3.649-1.525-6.366-0.472-10.833
	c1.11-4.384,1.749-6.875,2.056-8.995C15.556,43.075,9.065,46.642,12.099,58.443"/>
<path fill="#AFBC22" d="M22.922,74.313c-2.923-3.265-8.49-3.861-12.864-8.412c-7.562-7.604-7-11.905-7.349-14.303
	c2.452,5.16,5.383,6.193,9.228,10.354c1.251,1.443,4.057,4.688,5.865,7.212c-1.645-3.117-4.058-5.734-3.39-10.941
	c0.681-5.327,0.284-7.922-0.414-9.705C21.535,57.663,14.938,62.612,22.922,74.313"/>
<path fill="#AFBC22" d="M38.71,84.312c-4.987-2.38-11.364-1.712-15.78-3.375C12.373,76.895,9.933,70.347,9.106,68.217
	c4.434,4.837,9.89,6.745,14.293,8.162c2.965,0.912,8.172,3.966,9.609,4.722c-2.73-2.302-6.114-4.331-8.491-9.532
	c-2.39-5.332-2.119-7.521-3.315-9.54C32.042,69.507,29.264,77.887,38.71,84.312"/>
<path fill="#AFBC22" d="M55.776,89.286c-4.74-0.137-10.292,2.302-15.841,1.58c-8.555-1.31-13.487-4.114-15.677-6.041
	c2.976,1.31,9.907,0.736,13.307,1.005c2.477,0.088,7.437,1.075,11.13,2.257c-3.291-1.373-6.543-3.465-8.92-6
	c-2.32-2.472-4.2-5.988-6.389-7.915c5.064,1.841,7.544,3.152,10.134,5.863C47.368,84.075,49.484,87.463,55.776,89.286"/>
<path fill="#AFBC22" d="M108.463,17.456c-0.068,5.172-0.458,7.491,0.001,11.814c0.274,3.613,2.659,8.785,2.142,12.375
	c2.933-6.556,2.896-10.9,1.913-14.813C111.527,22.686,109.389,19.508,108.463,17.456"/>
<path fill="#AFBC22" d="M105.165,58.443c2.256-3.205,6.746-5.925,8.726-10.633c2.837-6.832,2.502-11.417,2.127-12.769
	c-0.549,3.175-2.794,6.636-5.475,10.908c-1.337,2.196-2.088,4.983-2.639,6.062c1.133-3.649,1.525-6.366,0.471-10.833
	c-1.111-4.384-1.75-6.875-2.056-8.995C101.707,43.075,108.199,46.642,105.165,58.443"/>
<path fill="#AFBC22" d="M94.341,74.313c2.924-3.265,8.49-3.861,12.863-8.412c7.562-7.604,7.001-11.905,7.35-14.303
	c-2.451,5.16-5.382,6.193-9.228,10.354c-1.251,1.443-4.057,4.688-5.865,7.212c1.646-3.117,4.059-5.734,3.391-10.941
	c-0.681-5.327-0.285-7.922,0.414-9.705C95.729,57.663,102.326,62.612,94.341,74.313"/>
<path fill="#AFBC22" d="M78.554,84.312c4.986-2.38,11.363-1.712,15.779-3.375c10.558-4.043,12.996-10.591,13.824-12.72
	c-4.434,4.837-9.89,6.745-14.293,8.162c-2.965,0.912-8.172,3.966-9.608,4.722c2.729-2.302,6.113-4.331,8.49-9.532
	c2.39-5.332,2.119-7.521,3.316-9.54C85.22,69.507,87.999,77.887,78.554,84.312"/>
<path fill="#AFBC22" d="M61.488,89.286c4.739-0.137,10.291,2.302,15.839,1.58c8.555-1.31,13.487-4.114,15.678-6.041
	c-2.978,1.31-9.908,0.736-13.308,1.005c-2.476,0.088-7.437,1.075-11.13,2.257c3.292-1.373,6.542-3.465,8.92-6
	c2.321-2.472,4.2-5.988,6.389-7.915c-5.064,1.841-7.543,3.152-10.134,5.863C69.895,84.075,67.779,87.463,61.488,89.286"/>
<path fill="#807F83" d="M229.671,60.604c0,3.851-3.705,6.685-7.339,6.685c-3.633,0-5.231-2.544-5.231-6.104
	c0-3.489,2.397-6.467,6.902-6.467c2.544,0,4.578,0.362,5.668,0.726V60.604z M236.793,71.503c-0.292-2.179-0.655-4.359-0.655-6.467
	V45.563c0-6.249-4.069-10.174-11.991-10.174c-3.487,0-7.266,0.365-10.535,1.891l1.38,5.303c2.181-1.38,5.887-1.888,8.284-1.888
	c3.997,0,6.395,1.816,6.395,6.176v3.924c-1.308-0.218-3.489-0.583-5.668-0.583c-7.557,0-13.661,3.563-13.661,11.264
	c0,6.612,3.197,10.683,10.246,10.683c3.707,0,7.338-1.454,9.301-4.869l0.653,4.214H236.793z M201.986,60.822
	c0-11.191-14.024-7.92-14.024-15.624c0-3.559,2.834-4.722,5.959-4.722c2.034,0,4.068,0.29,5.957,1.09l1.31-5.306
	c-2.397-0.727-4.869-0.873-7.338-0.873c-6.978,0-12.426,2.472-12.426,10.319c0,11.771,13.733,8.066,13.733,15.695
	c0,3.923-2.544,5.522-6.176,5.522c-2.398,0-4.797-0.29-6.832-1.527l-1.308,5.523c2.47,0.945,5.086,1.236,7.703,1.236
	C195.955,72.158,201.986,68.96,201.986,60.822 M173.794,60.822c0-11.191-14.024-7.92-14.024-15.624c0-3.559,2.833-4.722,5.956-4.722
	c2.037,0,4.07,0.29,5.959,1.09l1.309-5.306c-2.399-0.727-4.869-0.873-7.34-0.873c-6.974,0-12.426,2.472-12.426,10.319
	c0,11.771,13.734,8.066,13.734,15.695c0,3.923-2.542,5.522-6.177,5.522c-2.397,0-4.794-0.29-6.829-1.527l-1.308,5.523
	c2.47,0.945,5.086,1.236,7.703,1.236C167.763,72.158,173.794,68.96,173.794,60.822 M141.603,71.503V36.043h-11.48v5.449h4.795
	v30.011H141.603z M142.259,24.418c0-2.472-2.037-4.651-4.507-4.651c-2.47,0-4.504,2.179-4.504,4.651
	c0,2.469,2.034,4.649,4.504,4.649C140.222,29.067,142.259,26.887,142.259,24.418"/>
</svg>
